<svg height="512pt" viewBox="-37 0 511 512" width="512pt" xmlns="http://www.w3.org/2000/svg"><path d="m437.277344 49.570312v412.859376c0 27.375-22.191406 49.570312-49.570313 49.570312h-296.875c-27.375 0-49.570312-22.195312-49.570312-49.570312v-412.859376c0-27.375 22.195312-49.570312 49.570312-49.570312h296.875c27.378907 0 49.570313 22.195312 49.570313 49.570312zm0 0" fill="#4da6c1"/><path d="m437.277344 49.570312v412.859376c0 27.375-22.191406 49.570312-49.570313 49.570312h-267.097656c-27.375 0-49.566406-22.195312-49.566406-49.570312v-412.859376c0-27.375 22.191406-49.570312 49.566406-49.570312h267.097656c27.378907 0 49.570313 22.195312 49.570313 49.570312zm0 0" fill="#8fd4ef"/><g fill="#d6d3c4"><path d="m98.730469 84.636719c0 6.636719-2.695313 12.644531-7.042969 16.988281-4.347656 4.359375-10.355469 7.042969-16.988281 7.042969h-50.167969c-13.269531 0-24.03125-10.761719-24.03125-24.03125 0-6.636719 2.683594-12.644531 7.042969-16.988281 4.347656-4.359376 10.355469-7.042969 16.988281-7.042969h50.167969c13.269531 0 24.03125 10.761719 24.03125 24.03125zm0 0"/><path d="m98.730469 170.320312c0 6.632813-2.695313 12.640626-7.042969 16.988282-4.347656 4.355468-10.355469 7.042968-16.988281 7.042968h-50.167969c-13.269531 0-24.03125-10.761718-24.03125-24.03125 0-6.636718 2.683594-12.644531 7.042969-16.992187 4.347656-4.355469 10.355469-7.042969 16.988281-7.042969h50.167969c13.269531 0 24.03125 10.761719 24.03125 24.035156zm0 0"/><path d="m98.730469 256c0 6.636719-2.695313 12.644531-7.042969 16.988281-4.347656 4.359375-10.355469 7.042969-16.988281 7.042969h-50.167969c-13.269531 0-24.03125-10.761719-24.03125-24.03125 0-6.636719 2.683594-12.644531 7.042969-16.988281 4.347656-4.359375 10.355469-7.042969 16.988281-7.042969h50.167969c13.269531 0 24.03125 10.761719 24.03125 24.03125zm0 0"/><path d="m98.730469 341.679688c0 6.636718-2.695313 12.644531-7.042969 16.992187-4.347656 4.355469-10.355469 7.042969-16.988281 7.042969h-50.167969c-13.269531 0-24.03125-10.761719-24.03125-24.035156 0-6.632813 2.683594-12.640626 7.042969-16.988282 4.347656-4.355468 10.355469-7.042968 16.988281-7.042968h50.167969c13.269531 0 24.03125 10.761718 24.03125 24.03125zm0 0"/><path d="m98.730469 427.363281c0 6.636719-2.695313 12.644531-7.042969 16.988281-4.347656 4.359376-10.355469 7.042969-16.988281 7.042969h-50.167969c-13.269531 0-24.03125-10.761719-24.03125-24.03125 0-6.636719 2.683594-12.644531 7.042969-16.988281 4.347656-4.359375 10.355469-7.042969 16.988281-7.042969h50.167969c13.269531 0 24.03125 10.761719 24.03125 24.03125zm0 0"/></g><path d="m98.730469 84.636719c0 6.636719-2.695313 12.644531-7.042969 16.988281-4.347656 4.359375-10.355469 7.042969-16.988281 7.042969h-20.910157c-13.269531 0-24.03125-10.761719-24.03125-24.03125 0-6.636719 2.683594-12.644531 7.042969-16.988281 4.347657-4.359376 10.355469-7.042969 16.988281-7.042969h20.910157c13.269531 0 24.03125 10.761719 24.03125 24.03125zm0 0" fill="#fcf3de"/><path d="m98.730469 170.320312c0 6.632813-2.695313 12.640626-7.042969 16.988282-4.347656 4.355468-10.355469 7.042968-16.988281 7.042968h-20.910157c-13.269531 0-24.03125-10.761718-24.03125-24.03125 0-6.636718 2.683594-12.644531 7.042969-16.992187 4.347657-4.355469 10.355469-7.042969 16.988281-7.042969h20.910157c13.269531 0 24.03125 10.761719 24.03125 24.035156zm0 0" fill="#fcf3de"/><path d="m98.730469 256c0 6.636719-2.695313 12.644531-7.042969 16.988281-4.347656 4.359375-10.355469 7.042969-16.988281 7.042969h-20.910157c-13.269531 0-24.03125-10.761719-24.03125-24.03125 0-6.636719 2.683594-12.644531 7.042969-16.988281 4.347657-4.359375 10.355469-7.042969 16.988281-7.042969h20.910157c13.269531 0 24.03125 10.761719 24.03125 24.03125zm0 0" fill="#fcf3de"/><path d="m98.730469 341.679688c0 6.636718-2.695313 12.644531-7.042969 16.992187-4.347656 4.355469-10.355469 7.042969-16.988281 7.042969h-20.910157c-13.269531 0-24.03125-10.761719-24.03125-24.035156 0-6.632813 2.683594-12.640626 7.042969-16.988282 4.347657-4.355468 10.355469-7.042968 16.988281-7.042968h20.910157c13.269531 0 24.03125 10.761718 24.03125 24.03125zm0 0" fill="#fcf3de"/><path d="m98.730469 427.363281c0 6.636719-2.695313 12.644531-7.042969 16.988281-4.347656 4.359376-10.355469 7.042969-16.988281 7.042969h-20.910157c-13.269531 0-24.03125-10.761719-24.03125-24.03125 0-6.636719 2.683594-12.644531 7.042969-16.988281 4.347657-4.359375 10.355469-7.042969 16.988281-7.042969h20.910157c13.269531 0 24.03125 10.761719 24.03125 24.03125zm0 0" fill="#fcf3de"/><path d="m387.707031 118.636719-48.585937-33.695313-48.582032 33.695313v-117.542969h97.167969zm0 0" fill="#fd7369"/><path d="m383.707031 347.195312-15.300781 15.304688c-10.660156 10.65625-23.417969 17.925781-36.945312 21.816406-29.050782 8.339844-61.636719 1.066406-84.515626-21.816406l-97.09375-97.097656c-33.546874-33.539063-33.546874-87.917969 0-121.457032l15.300782-15.304687c5.730468-5.730469 15.023437-5.730469 20.753906 0l39.960938 39.953125c5.730468 5.730469 5.730468 15.023438 0 20.753906l-15.304688 15.308594-4.621094 4.613281c-10.3125 10.3125-10.3125 27.035157 0 37.347657l59.789063 59.789062c10.308593 10.3125 27.03125 10.3125 37.34375 0l4.625-4.617188 15.300781-15.308593c5.730469-5.730469 15.023438-5.730469 20.753906 0l39.953125 39.960937c5.730469 5.734375 5.730469 15.023438 0 20.753906zm0 0" fill="#fecf77"/><path d="m331.460938 384.316406c-29.046876 8.339844-61.632813 1.066406-84.515626-21.816406l-97.09375-97.097656c-33.542968-33.539063-33.542968-87.917969 0-121.457032l12.84375-12.847656 6.199219 31.890625c-15.074219 15.070313-31.414062 64.503907 5.796875 101.722657 37.222656 37.21875 77.039063 77.035156 87.859375 87.851562 8.105469 8.105469 39.246094 33.898438 68.910157 31.753906zm0 0" fill="#ed9e27"/><path d="m225.867188 189.347656-15.304688 15.308594-41.667969-41.671875-19.042969-19.042969 15.300782-15.300781c5.730468-5.730469 15.023437-5.730469 20.753906 0l19.042969 19.042969 20.96875 20.964844c5.679687 5.734374 5.660156 14.984374-.050781 20.699218zm0 0" fill="#d6d3c4"/><path d="m225.867188 189.347656-15.304688 15.308594-41.667969-41.671875 15.300781-15.300781c5.730469-5.730469 15.023438-5.730469 20.753907 0l20.96875 20.964844c5.679687 5.734374 5.660156 14.984374-.050781 20.699218zm0 0" fill="#fcf3de"/><path d="m383.707031 347.195312-15.300781 15.304688-60.707031-60.707031 15.300781-15.308594c5.730469-5.730469 15.023438-5.730469 20.753906 0l39.953125 39.960937c5.730469 5.730469 5.730469 15.019532 0 20.75zm0 0" fill="#d6d3c4"/><path d="m383.710938 347.191406-15.304688 15.308594-41.671875-41.667969 15.304687-15.304687c5.730469-5.730469 15.019532-5.730469 20.75 0l20.972657 20.964844c5.675781 5.734374 5.660156 14.984374-.050781 20.699218zm0 0" fill="#fcf3de"/></svg>